<svg id="Layer_1" data-name="Layer 1" xmlns="http://www.w3.org/2000/svg" viewBox="0 0 324.52 50.53"><defs><style>.cls-1{stroke:#000;stroke-linecap:round;stroke-linejoin:round;stroke-width:0.8px;}</style></defs><polygon class="cls-1" points="125.83 15.27 117.19 2.3 134.48 2.3 125.83 15.27"/><polygon class="cls-1" points="125.83 35.01 134.48 47.98 117.19 47.98 125.83 35.01"/><path class="cls-1" d="M29.28,48.78h-6.9L9.48,18.9V48.78H0V1.56H9.48L25.8,39.36,42.18,1.56h9.48V48.78H42.18V18.9Z"/><path class="cls-1" d="M57.66,25.08a26.11,26.11,0,0,1,1.92-10.17,22.7,22.7,0,0,1,5.34-7.83,24,24,0,0,1,8.07-5,29.59,29.59,0,0,1,20.16,0,23.68,23.68,0,0,1,8,5,22.56,22.56,0,0,1,5.28,7.83,26.47,26.47,0,0,1,1.89,10.17,26.63,26.63,0,0,1-1.89,10.23,22.87,22.87,0,0,1-5.28,7.86,23.44,23.44,0,0,1-8,5,29.59,29.59,0,0,1-20.16,0,23.76,23.76,0,0,1-8.07-5,23,23,0,0,1-5.34-7.86A26.27,26.27,0,0,1,57.66,25.08Zm9.48,0a19.65,19.65,0,0,0,1.26,7.23,16.46,16.46,0,0,0,3.42,5.46,14.74,14.74,0,0,0,5.07,3.45,16.44,16.44,0,0,0,12.33,0,14.81,14.81,0,0,0,5-3.45,16.08,16.08,0,0,0,3.39-5.46,20.08,20.08,0,0,0,1.23-7.23A19.42,19.42,0,0,0,97.65,18a16.2,16.2,0,0,0-3.39-5.4,14.81,14.81,0,0,0-5-3.45A15.91,15.91,0,0,0,83,7.92a16.13,16.13,0,0,0-6.21,1.2,14.74,14.74,0,0,0-5.07,3.45A16.2,16.2,0,0,0,68.37,18,19.42,19.42,0,0,0,67.14,25.08Z"/><path class="cls-1" d="M149.08,36.24a21.69,21.69,0,0,0,3.57,2.46,28.32,28.32,0,0,0,4.11,1.86,25.76,25.76,0,0,0,4.47,1.17,24.15,24.15,0,0,0,4.65.33,12.23,12.23,0,0,0,5.91-1.38,4.48,4.48,0,0,0,2.31-4.2,5.65,5.65,0,0,0-2.28-4.89,18.8,18.8,0,0,0-6.72-2.67,53.73,53.73,0,0,1-7.95-2.28,22.83,22.83,0,0,1-5.79-3.12,12.14,12.14,0,0,1-3.54-4.2,12.32,12.32,0,0,1-1.2-5.58,11.6,11.6,0,0,1,1.44-5.91A12.72,12.72,0,0,1,152,3.66a17.61,17.61,0,0,1,5.64-2.49,28.09,28.09,0,0,1,15.84.72,44.13,44.13,0,0,1,8.64,4.23l-3.54,7.14A27.5,27.5,0,0,0,172,9.78a22.76,22.76,0,0,0-7.32-1.5,15.51,15.51,0,0,0-3,.18,9.68,9.68,0,0,0-2.76.84,5.54,5.54,0,0,0-2,1.62,4,4,0,0,0-.78,2.52,5.88,5.88,0,0,0,.42,2.31,4.47,4.47,0,0,0,1.5,1.8,12.69,12.69,0,0,0,2.88,1.53,38.23,38.23,0,0,0,4.62,1.44A63,63,0,0,1,174,23.31a21.41,21.41,0,0,1,5.58,3.3,11,11,0,0,1,3.09,4.17,14.31,14.31,0,0,1,1,5.46,11.81,11.81,0,0,1-1.44,5.91,13.09,13.09,0,0,1-3.9,4.29,18.05,18.05,0,0,1-5.85,2.64,28.08,28.08,0,0,1-7.23.9,30.33,30.33,0,0,1-10.53-1.86,40.41,40.41,0,0,1-9.21-4.74Z"/><path class="cls-1" d="M225.34,21v7.32H200.56v13.2h26.52v7.26h-36V1.56h35.4V8.88H200.56V21Z"/><path class="cls-1" d="M255.1,50A23.19,23.19,0,0,1,247,48.6a19.82,19.82,0,0,1-6.51-3.87,18,18,0,0,1-4.35-6,18.76,18.76,0,0,1-1.59-7.83V1.56h9.48V30.3a14.8,14.8,0,0,0,.72,4.65,11.19,11.19,0,0,0,2.1,3.81,10,10,0,0,0,3.45,2.58,12.33,12.33,0,0,0,9.54,0,10.28,10.28,0,0,0,3.48-2.58A10.93,10.93,0,0,0,265.48,35a14.8,14.8,0,0,0,.72-4.65V1.56h9.48V30.9a18.76,18.76,0,0,1-1.59,7.83,17.76,17.76,0,0,1-4.38,6,20.17,20.17,0,0,1-6.54,3.87A23.19,23.19,0,0,1,255.1,50Z"/><path class="cls-1" d="M284.68,1.56H310a18.7,18.7,0,0,1,5.7.84A13,13,0,0,1,320.32,5a11.61,11.61,0,0,1,3.09,4.32,15.64,15.64,0,0,1,1.11,6.15,14.81,14.81,0,0,1-1,5.85,10.41,10.41,0,0,1-2.88,3.93,14.8,14.8,0,0,1-4.5,2.52,41.45,41.45,0,0,1-5.88,1.62l-16.08,3.84v15.6h-9.48ZM315.1,15.42a6.16,6.16,0,0,0-1.89-4.86,7.09,7.09,0,0,0-4.89-1.68H294.16V25.26l13.14-2.7a11.65,11.65,0,0,0,5.79-2.43A6,6,0,0,0,315.1,15.42Z"/></svg>