<svg id="Layer_1" data-name="Layer 1" xmlns="http://www.w3.org/2000/svg" viewBox="0 0 302.04 50.28"><path d="M40.68,1.2H53.46V49H41V25.14L31.2,49H22.26L12.48,25.14V49H0V1.2H12.78l13.92,34Z" transform="translate(0 0.06)"/><path d="M58.74,25a25,25,0,0,1,2-10.08A24,24,0,0,1,66.27,7,25.1,25.1,0,0,1,74.58,1.8a30.4,30.4,0,0,1,20.94,0A25.1,25.1,0,0,1,103.83,7a23.32,23.32,0,0,1,5.46,8A25.66,25.66,0,0,1,111.24,25a25.82,25.82,0,0,1-1.95,10.14,23.63,23.63,0,0,1-5.46,8,24.85,24.85,0,0,1-8.31,5.22,30.4,30.4,0,0,1-20.94,0,24.85,24.85,0,0,1-8.31-5.22,24.38,24.38,0,0,1-5.52-8A25.14,25.14,0,0,1,58.74,25Zm12.48,0a17.58,17.58,0,0,0,1,6A14,14,0,0,0,75,35.76a12.59,12.59,0,0,0,4.35,3.09,15,15,0,0,0,11.34,0A12.59,12.59,0,0,0,95,35.76a14,14,0,0,0,2.79-4.71,17.58,17.58,0,0,0,1-6,17,17,0,0,0-1-5.88A14.07,14.07,0,0,0,95,14.46a12.59,12.59,0,0,0-4.35-3.09,15,15,0,0,0-11.34,0A12.59,12.59,0,0,0,75,14.46a14.07,14.07,0,0,0-2.79,4.68A17,17,0,0,0,71.22,25Z" transform="translate(0 0.06)"/><path d="M122.1,33.42a26.28,26.28,0,0,0,7.44,4.38,22.83,22.83,0,0,0,8.76,1.62,9.08,9.08,0,0,0,4.38-.9A2.76,2.76,0,0,0,144.06,36a3.79,3.79,0,0,0-1.59-3.18,16.44,16.44,0,0,0-5.31-2.22q-3.18-.9-6.54-2a25.9,25.9,0,0,1-6.12-2.79A14.76,14.76,0,0,1,120,21.42a12.48,12.48,0,0,1-1.77-7A13.55,13.55,0,0,1,119.67,8a12.78,12.78,0,0,1,4-4.5A17.83,17.83,0,0,1,129.63.84,29.72,29.72,0,0,1,136.8,0a33.36,33.36,0,0,1,5,.36,29.46,29.46,0,0,1,4.68,1.11,31.83,31.83,0,0,1,4.56,1.89,43.48,43.48,0,0,1,4.65,2.76l-4.92,9.6a23.48,23.48,0,0,0-13.68-4.86,13.06,13.06,0,0,0-2.37.09,6.77,6.77,0,0,0-1.95.54,3.88,3.88,0,0,0-1.35,1,2.24,2.24,0,0,0-.51,1.5,4.34,4.34,0,0,0,.27,1.59,3.1,3.1,0,0,0,1.05,1.29,9.91,9.91,0,0,0,2.25,1.2,34.3,34.3,0,0,0,3.93,1.26q3.84,1.08,7.23,2.25a23.64,23.64,0,0,1,5.91,2.94,12.86,12.86,0,0,1,4,4.41A13.8,13.8,0,0,1,157,35.58a13.82,13.82,0,0,1-1.44,6.48,12.59,12.59,0,0,1-4,4.56,18.6,18.6,0,0,1-6.12,2.7,31.37,31.37,0,0,1-7.74.9,33.92,33.92,0,0,1-11.19-1.8,37.62,37.62,0,0,1-9.63-5Z" transform="translate(0 0.06)"/><path d="M200.22,19.44V29.76H176.64v9H202V49h-37.8V1.2h37.2V11.52H176.64v7.92Z" transform="translate(0 0.06)"/><path d="M230.52,50.22a24.56,24.56,0,0,1-8.31-1.38,21.39,21.39,0,0,1-6.81-3.9,18,18,0,0,1-4.62-6.09,18.58,18.58,0,0,1-1.68-8V1.2h12.48v29a10.62,10.62,0,0,0,.6,3.6,8.68,8.68,0,0,0,1.74,2.94,8.32,8.32,0,0,0,2.82,2,9.9,9.9,0,0,0,7.56,0,8.64,8.64,0,0,0,2.85-2,8.44,8.44,0,0,0,1.77-2.94,10.62,10.62,0,0,0,.6-3.6V1.2H252V30.84a18.31,18.31,0,0,1-1.71,8,18.57,18.57,0,0,1-4.62,6.09,20.91,20.91,0,0,1-6.84,3.9A24.9,24.9,0,0,1,230.52,50.22Z" transform="translate(0 0.06)"/><path d="M260.4,1.2h26.82a19.79,19.79,0,0,1,5.85.84,12.92,12.92,0,0,1,4.71,2.55A11.75,11.75,0,0,1,300.9,9,16.27,16.27,0,0,1,302,15.36a18.56,18.56,0,0,1-.9,6.15,11.17,11.17,0,0,1-2.7,4.32A14.72,14.72,0,0,1,294,28.77a33.75,33.75,0,0,1-6.15,1.95L272.88,34V49H260.4Zm29.22,14.46a4.2,4.2,0,0,0-1.11-2.91,3.8,3.8,0,0,0-3-1.23H272.88V23.1l11.4-2.1q3.06-.54,4.2-2A5.26,5.26,0,0,0,289.62,15.66Z" transform="translate(0 0.06)"/></svg>